<svg width="40" height="40" viewBox="0 0 40 40" fill="none" xmlns="http://www.w3.org/2000/svg">
<g clip-path="url(#clip0)">
<path d="M34.9992 5.44305C35.4306 5.44305 35.7804 5.09329 35.7804 4.66181V3.28165C35.7804 1.47236 34.3084 0.000488281 32.4992 0.000488281H7.49983C5.69054 0.000488281 4.21866 1.47244 4.21866 3.28165V8.77008H2.65617C2.05304 8.77008 1.56242 8.27946 1.56242 7.67633C1.56242 7.07321 2.05304 6.58258 2.65617 6.58258C3.08757 6.58258 3.43742 6.23282 3.43742 5.80134C3.43742 5.36985 3.08757 5.02009 2.65617 5.02009C1.19156 5.02017 0 6.21173 0 7.67641C0 9.14109 1.19156 10.3326 2.65617 10.3326H4.21866V21.1036H2.65617C2.05304 21.1036 1.56242 20.613 1.56242 20.0099C1.56242 19.4068 2.05304 18.9161 2.65617 18.9161C3.08757 18.9161 3.43742 18.5664 3.43742 18.1349C3.43742 17.7034 3.08757 17.3537 2.65617 17.3537C1.19156 17.3537 0 18.5453 0 20.0099C0 21.4746 1.19156 22.6661 2.65617 22.6661H4.21866V33.4371H2.65617C2.05304 33.4371 1.56242 32.9465 1.56242 32.3434C1.56242 31.7403 2.05304 31.2496 2.65617 31.2496C3.08757 31.2496 3.43742 30.8999 3.43742 30.4684C3.43742 30.0369 3.08757 29.6871 2.65617 29.6871C1.19156 29.6873 0 30.8788 0 32.3435C0 33.8081 1.19156 34.9996 2.65617 34.9996H4.21866V36.7184C4.21866 38.5277 5.69061 39.9995 7.49983 39.9995H32.4992C34.3085 39.9995 35.7804 38.5276 35.7804 36.7184V25.6018C35.7804 25.1703 35.4306 24.8205 34.9992 24.8205C34.5677 24.8205 34.2179 25.1703 34.2179 25.6018V36.7183C34.2179 37.666 33.4469 38.437 32.4992 38.437H7.49983C6.5521 38.437 5.78108 37.666 5.78108 36.7183V34.9995H7.66913C9.13381 34.9995 10.3253 33.808 10.3253 32.3434C10.3253 30.8787 9.13373 29.6872 7.66913 29.6872H7.591C7.1596 29.6872 6.80975 30.037 6.80975 30.4685C6.80975 30.9 7.1596 31.2497 7.591 31.2497H7.66913C8.27225 31.2497 8.76287 31.7403 8.76287 32.3435C8.76287 32.9466 8.27225 33.4372 7.66913 33.4372H5.78108V22.6661H7.66913C9.13381 22.6661 10.3253 21.4746 10.3253 20.01C10.3253 18.5454 9.13373 17.3538 7.66913 17.3538H7.591C7.1596 17.3538 6.80975 17.7036 6.80975 18.1351C6.80975 18.5665 7.1596 18.9163 7.591 18.9163H7.66913C8.27225 18.9163 8.76287 19.4069 8.76287 20.0101C8.76287 20.6132 8.27225 21.1038 7.66913 21.1038H5.78108V10.3327H7.66913C9.13381 10.3327 10.3253 9.14117 10.3253 7.67657C10.3253 6.21188 9.13373 5.0204 7.66913 5.0204H7.591C7.1596 5.0204 6.80975 5.37016 6.80975 5.80165C6.80975 6.23313 7.1596 6.5829 7.591 6.5829H7.66913C8.27225 6.5829 8.76287 7.07352 8.76287 7.67664C8.76287 8.27977 8.27225 8.77039 7.66913 8.77039H5.78108V3.28165C5.78108 2.33392 6.5521 1.56291 7.49983 1.56291H32.4992C33.447 1.56291 34.218 2.33392 34.218 3.28165V4.66188C34.218 5.09329 34.5678 5.44305 34.9992 5.44305Z" fill="#9557BC"/>
<path d="M19.0675 29.6231C18.9223 29.4778 18.7207 29.3942 18.5153 29.3942C18.3089 29.3943 18.1082 29.4779 17.9629 29.6231C17.8176 29.7692 17.734 29.97 17.734 30.1755C17.734 30.3817 17.8175 30.5825 17.9629 30.7286C18.1082 30.8739 18.3098 30.9567 18.5153 30.9567C18.7207 30.9567 18.9223 30.8739 19.0675 30.7286C19.2128 30.5825 19.2965 30.3817 19.2965 30.1755C19.2965 29.97 19.2129 29.7692 19.0675 29.6231Z" fill="#9557BC"/>
<path d="M15.5466 29.3947H12.4375C12.0061 29.3947 11.6562 29.7444 11.6562 30.1759C11.6562 30.6074 12.0061 30.9572 12.4375 30.9572H15.5466C15.978 30.9572 16.3278 30.6074 16.3278 30.1759C16.3278 29.7444 15.978 29.3947 15.5466 29.3947Z" fill="#9557BC"/>
<path d="M19.9996 22.5198H12.4375C12.0061 22.5198 11.6562 22.8695 11.6562 23.301C11.6562 23.7325 12.0061 24.0823 12.4375 24.0823H19.9996C20.431 24.0823 20.7808 23.7325 20.7808 23.301C20.7808 22.8695 20.4309 22.5198 19.9996 22.5198Z" fill="#9557BC"/>
<path d="M22.9703 15.645H12.4375C12.0061 15.645 11.6562 15.9947 11.6562 16.4262C11.6562 16.8577 12.0061 17.2075 12.4375 17.2075H22.9703C23.4018 17.2075 23.7515 16.8577 23.7515 16.4262C23.7515 15.9947 23.4017 15.645 22.9703 15.645Z" fill="#9557BC"/>
<path d="M25.7065 8.77008H12.4375C12.0061 8.77008 11.6562 9.11985 11.6562 9.55133C11.6562 9.98281 12.0061 10.3326 12.4375 10.3326H25.7065C26.1379 10.3326 26.4878 9.98281 26.4878 9.55133C26.4878 9.11985 26.1379 8.77008 25.7065 8.77008Z" fill="#9557BC"/>
<path d="M39.9054 11.3086C39.7157 10.6009 39.2619 10.0094 38.6274 9.64304L35.6828 7.94281C34.3729 7.18664 32.6921 7.63711 31.9358 8.94687L21.3481 27.2854C21.2795 27.4042 21.2434 27.5389 21.2434 27.676V34.9996C21.2434 35.2788 21.3923 35.5367 21.634 35.6762C21.7549 35.7459 21.8897 35.7809 22.0247 35.7809C22.1596 35.7809 22.2944 35.7459 22.4153 35.6762L28.7577 32.0144C28.8765 31.9459 28.975 31.8472 29.0436 31.7285L39.6313 13.39C39.9976 12.7555 40.095 12.0163 39.9054 11.3086ZM22.8059 33.6466V31.9305L24.2979 32.7852L22.8059 33.6466ZM25.8633 31.8813L22.8059 30.1297V29.0291L26.8047 31.3377L25.8633 31.8813ZM28.0811 30.2707L23.0918 27.3902L31.3101 13.1555L36.2994 16.0361L28.0811 30.2707ZM38.2782 12.6087L37.0806 14.6829L32.0913 11.8023L33.2889 9.7282C33.6143 9.16453 34.3378 8.97078 34.9015 9.29609L37.8461 10.9962C38.1192 11.1539 38.3145 11.4084 38.3961 11.713C38.4778 12.0176 38.4358 12.3356 38.2782 12.6087Z" fill="#9557BC"/>
</g>
<defs>
<clipPath id="clip0">
<rect width="40" height="40" fill="white"/>
</clipPath>
</defs>
</svg>
