<svg width="40" height="40" viewBox="0 0 40 40" fill="none" xmlns="http://www.w3.org/2000/svg">
<g clip-path="url(#clip0)">
<path d="M10.3767 22.6314C10.2314 22.486 10.0298 22.4025 9.82434 22.4025C9.61887 22.4025 9.41731 22.4861 9.272 22.6314C9.12668 22.7767 9.04309 22.9783 9.04309 23.1838C9.04309 23.3892 9.12668 23.5908 9.272 23.736C9.41731 23.8814 9.61887 23.965 9.82434 23.965C10.0298 23.965 10.2314 23.8814 10.3767 23.736C10.522 23.5908 10.6056 23.39 10.6056 23.1838C10.6056 22.9783 10.522 22.7768 10.3767 22.6314Z" fill="#4DCCBD"/>
<path d="M10.627 0C9.58364 0 8.6027 0.406328 7.86489 1.14414C7.12715 1.88195 6.72083 2.86289 6.72083 3.90625C6.72075 6.06 8.47309 7.81234 10.6271 7.81242C12.7811 7.81234 14.5333 6.06 14.5332 3.90625C14.5332 1.75234 12.7809 0 10.627 0ZM10.627 6.24984C9.33465 6.24977 8.28325 5.19844 8.28325 3.90617C8.28325 3.28008 8.527 2.69156 8.96973 2.24891C9.41239 1.80625 10.001 1.56242 10.627 1.56242C11.9194 1.56242 12.9708 2.61383 12.9707 3.90617C12.9707 5.19844 11.9193 6.24977 10.627 6.24984Z" fill="#4DCCBD"/>
<path d="M38.3593 10.0002H32.7207C33.3612 9.23915 33.7481 8.25798 33.7481 7.18774C33.7481 4.77532 31.7854 2.81274 29.373 2.81274C28.2044 2.81274 27.1057 3.26782 26.2793 4.09415C25.4529 4.92048 24.9979 6.01915 24.9979 7.18774C24.9979 8.22853 25.3597 9.21337 26.0225 10.0002H24.6574C24.2878 7.95946 22.4992 6.40649 20.3536 6.40649C19.185 6.40649 18.0863 6.86157 17.2599 7.6879C16.6209 8.32688 16.205 9.12907 16.0489 10.0002H1.64075C1.20926 10.0002 0.859497 10.3501 0.859497 10.7815V15.0002C0.859497 15.2074 0.941841 15.4061 1.08833 15.5527L7.24059 21.7049C7.54567 22.0099 8.04036 22.0099 8.34551 21.7049C8.65059 21.3999 8.65059 20.9052 8.34551 20.6L3.52684 15.7813H30.4686C30.9 15.7813 31.2498 15.4315 31.2498 15.0001C31.2498 14.5687 30.9 14.2188 30.4686 14.2188H2.422V11.5626H37.5779V14.6764L23.1975 29.057C23.0511 29.2036 22.9687 29.4023 22.9687 29.6095V36.0104L17.0313 38.1133V29.6095C17.0313 29.4023 16.949 29.2036 16.8025 29.057L12.3493 24.6039C12.0443 24.2989 11.5496 24.2989 11.2444 24.6039C10.9393 24.909 10.9393 25.4037 11.2444 25.7088L15.4687 29.9331V39.2188C15.4687 39.4724 15.5919 39.7103 15.7991 39.8567C15.9328 39.9513 16.0906 40 16.25 40C16.3377 40 16.4259 39.9852 16.5107 39.9552L24.0107 37.2989C24.3226 37.1884 24.5311 36.8934 24.5311 36.5625V29.9331L38.9116 15.5527C39.0581 15.4061 39.1404 15.2074 39.1404 15.0002V10.7815C39.1405 10.35 38.7907 10.0002 38.3593 10.0002ZM17.6513 10.0002C17.7811 9.54853 18.0233 9.13431 18.3649 8.79282C18.8961 8.26157 19.6024 7.96899 20.3537 7.96899C21.6335 7.96899 22.7156 8.82845 23.0551 10.0002H17.6513ZM29.373 10.0002C28.6217 10.0002 27.9154 9.70767 27.3841 9.17642C26.8529 8.64517 26.5604 7.93892 26.5604 7.18774C26.5604 6.43649 26.8529 5.73024 27.3841 5.19907C27.9154 4.66782 28.6216 4.37524 29.3729 4.37524C30.9238 4.37524 32.1855 5.63688 32.1855 7.18774C32.1855 8.73853 30.9238 10.0002 29.373 10.0002Z" fill="#4DCCBD"/>
<path d="M33.9116 14.4479C33.7663 14.3025 33.5647 14.219 33.3593 14.219C33.1538 14.219 32.9522 14.3026 32.8069 14.4479C32.6616 14.5932 32.578 14.7948 32.578 15.0002C32.578 15.2057 32.6616 15.4073 32.8069 15.5525C32.9522 15.6979 33.1538 15.7815 33.3593 15.7815C33.5647 15.7815 33.7663 15.6979 33.9116 15.5525C34.0569 15.4073 34.1405 15.2057 34.1405 15.0002C34.1405 14.7947 34.0569 14.5933 33.9116 14.4479Z" fill="#4DCCBD"/>
</g>
<defs>
<clipPath id="clip0">
<rect width="40" height="40" fill="white"/>
</clipPath>
</defs>
</svg>
