<svg width="40" height="40" viewBox="0 0 40 40" fill="none" xmlns="http://www.w3.org/2000/svg">
<g clip-path="url(#clip0)">
<path d="M13.8655 25.8445C13.7203 25.6992 13.5187 25.6164 13.3132 25.6164C13.1077 25.6164 12.9062 25.6993 12.7609 25.8445C12.6156 25.9906 12.532 26.1922 12.532 26.3969C12.532 26.6031 12.6155 26.8039 12.7609 26.9492C12.9062 27.0952 13.1077 27.1781 13.3132 27.1781C13.5187 27.1781 13.7203 27.0952 13.8655 26.9492C14.0108 26.8039 14.0945 26.603 14.0945 26.3969C14.0945 26.1922 14.0109 25.9906 13.8655 25.8445Z" fill="#5C58CD"/>
<path d="M40 26.5551C40 24.9774 38.8913 23.6545 37.4123 23.3223C37.7625 22.797 37.9671 22.1667 37.9671 21.4894C37.9671 19.6621 36.4805 18.1755 34.6531 18.1755H25.9594L27.0966 14.7991C27.5556 13.4365 27.4459 11.9821 26.7879 10.7037C26.1298 9.42545 25.0098 8.49108 23.6344 8.07287L22.2637 7.65623C21.8653 7.53506 21.4431 7.74709 21.3017 8.13787L19.1479 14.0905C18.5366 15.78 17.331 17.1835 15.7533 18.0426L13.6016 19.2143C13.1388 18.5849 12.3937 18.1755 11.5544 18.1755H0.78125C0.349844 18.1755 0 18.5254 0 18.9568V39.2187C0 39.6501 0.349844 39.9999 0.78125 39.9999H11.5544C12.489 39.9999 13.3067 39.4922 13.7478 38.7384L14.8505 39.1709C16.2535 39.7211 17.7289 40 19.2357 40H32.8869C34.7142 40 36.2009 38.5133 36.2009 36.686C36.2009 36.0033 35.9932 35.3683 35.638 34.8404C37.0889 34.4878 38.1697 33.1783 38.1697 31.6205C38.1697 30.9244 37.9534 30.278 37.5852 29.744C38.9768 29.3511 40 28.0708 40 26.5551ZM36.686 28.3065H34.8557H31.2677H28.6505C28.2191 28.3065 27.8692 28.6564 27.8692 29.0878C27.8692 29.5192 28.2191 29.869 28.6505 29.869H31.2677H34.8557C35.8215 29.869 36.6072 30.6548 36.6072 31.6205C36.6072 32.5863 35.8215 33.372 34.8557 33.372H32.8869H28.9166H28.6505C28.2191 33.372 27.8693 33.7219 27.8693 34.1533C27.8693 34.5847 28.2191 34.9345 28.6505 34.9345H28.9166H32.8869C33.8527 34.9345 34.6384 35.7202 34.6384 36.686C34.6384 37.6518 33.8527 38.4375 32.8869 38.4375H19.2357C17.9249 38.4375 16.6415 38.1948 15.421 37.7162L14.0945 37.196V29.5312C14.0945 29.0998 13.7447 28.75 13.3133 28.75C12.8819 28.75 12.532 29.0998 12.532 29.5312V37.4597C12.532 37.9987 12.0935 38.4373 11.5544 38.4373H1.5625V19.738H11.5544C12.0934 19.738 12.532 20.1765 12.532 20.7156V23.3683C12.532 23.7997 12.8819 24.1496 13.3133 24.1496C13.7447 24.1496 14.0945 23.7997 14.0945 23.3683V20.725L16.5005 19.4147C18.4139 18.373 19.8759 16.6709 20.6172 14.6221L22.5187 9.36678L23.1798 9.56772C24.1477 9.86202 24.9357 10.5194 25.3987 11.4188C25.8617 12.3183 25.9388 13.3415 25.6159 14.3002L24.1316 18.7072C24.0513 18.9456 24.0907 19.208 24.2373 19.4123C24.3841 19.6166 24.6203 19.7378 24.8719 19.7378H34.6531C35.6189 19.7378 36.4046 20.5235 36.4046 21.4893C36.4046 22.4551 35.6189 23.2408 34.6531 23.2408H28.6505C28.2191 23.2408 27.8692 23.5906 27.8692 24.022C27.8692 24.4534 28.2191 24.8033 28.6505 24.8033H31.2632C31.2648 24.8033 31.2662 24.8035 31.2677 24.8035H36.686C37.6518 24.8035 38.4375 25.5892 38.4375 26.555C38.4375 27.5209 37.6518 28.3065 36.686 28.3065Z" fill="#5C58CD"/>
<path d="M8.52918 32.4633C7.32254 32.4633 6.34082 33.4449 6.34082 34.6515C6.34082 35.8582 7.32246 36.8399 8.52918 36.8399C9.7359 36.8399 10.7175 35.8583 10.7175 34.6515C10.7175 33.445 9.73582 32.4633 8.52918 32.4633ZM8.52918 35.2774C8.1841 35.2774 7.90332 34.9966 7.90332 34.6515C7.90332 34.3065 8.1841 34.0258 8.52918 34.0258C8.87426 34.0258 9.15504 34.3065 9.15504 34.6515C9.15504 34.9966 8.87426 35.2774 8.52918 35.2774Z" fill="#5C58CD"/>
<path d="M23.8976 0.228906C23.7522 0.0835938 23.5508 0 23.3452 0C23.1397 0 22.9382 0.0835156 22.7929 0.228906C22.6476 0.374219 22.564 0.575781 22.564 0.78125C22.564 0.986719 22.6476 1.18828 22.7929 1.33352C22.9382 1.47891 23.1397 1.5625 23.3452 1.5625C23.5508 1.5625 23.7522 1.47891 23.8976 1.33352C24.0429 1.18828 24.1265 0.986719 24.1265 0.78125C24.1265 0.575781 24.0429 0.374219 23.8976 0.228906Z" fill="#5C58CD"/>
<path d="M23.3453 2.91663C22.9139 2.91663 22.5641 3.26647 22.5641 3.69788V5.59897C22.5641 6.03038 22.9139 6.38022 23.3453 6.38022C23.7767 6.38022 24.1266 6.03038 24.1266 5.59897V3.69788C24.1266 3.26647 23.7768 2.91663 23.3453 2.91663Z" fill="#5C58CD"/>
<path d="M33.5984 10.2551H28.7808C28.3493 10.2551 27.9995 10.6049 27.9995 11.0364C27.9995 11.4678 28.3494 11.8176 28.7808 11.8176H33.5984C34.0298 11.8176 34.3797 11.4678 34.3797 11.0364C34.3797 10.605 34.0298 10.2551 33.5984 10.2551Z" fill="#5C58CD"/>
<path d="M17.9078 10.2531H13.0901C12.6587 10.2531 12.3088 10.6029 12.3088 11.0343C12.3088 11.4657 12.6586 11.8156 13.0901 11.8156H17.9078C18.3392 11.8156 18.6891 11.4657 18.6891 11.0343C18.6891 10.6029 18.3392 10.2531 17.9078 10.2531Z" fill="#5C58CD"/>
<path d="M19.4804 6.06506L17.2058 3.79046C16.9006 3.48546 16.4061 3.48546 16.1009 3.79046C15.7958 4.09553 15.7958 4.59022 16.1009 4.89538L18.3756 7.16998C18.5281 7.32248 18.7281 7.39881 18.928 7.39881C19.1279 7.39881 19.3278 7.32248 19.4804 7.16998C19.7855 6.86491 19.7855 6.37022 19.4804 6.06506Z" fill="#5C58CD"/>
<path d="M30.5891 3.79198C30.2839 3.48698 29.7894 3.48698 29.4841 3.79198L27.2095 6.06659C26.9044 6.37167 26.9044 6.86635 27.2095 7.17151C27.3621 7.32401 27.562 7.40034 27.762 7.40034C27.962 7.40034 28.1619 7.32401 28.3144 7.17151L30.5891 4.8969C30.8941 4.59183 30.8941 4.09714 30.5891 3.79198Z" fill="#5C58CD"/>
</g>
<defs>
<clipPath id="clip0">
<rect width="40" height="40" fill="white"/>
</clipPath>
</defs>
</svg>
