<svg width="552" height="442" viewBox="0 0 552 442" fill="none" xmlns="http://www.w3.org/2000/svg">
<path d="M299.027 43.4739C310.857 40.605 323.35 43.2792 332.969 50.7396L430.066 126.048C439.685 133.508 445.383 144.943 445.548 157.115L447.209 279.982C447.373 292.154 441.986 303.738 432.573 311.456L337.546 389.361C328.133 397.079 315.717 400.09 303.813 397.542L183.657 371.821C171.754 369.272 161.658 361.443 156.229 350.548L101.422 240.568C95.9928 229.673 95.8201 216.899 100.953 205.861L152.767 94.4404C157.9 83.4025 167.78 75.3027 179.61 72.4338L299.027 43.4739Z" fill="#E8DDEE"/>
<g filter="url(#filter0_d)">
<rect x="333" y="111" width="180.781" height="86.1267" rx="40" fill="#F7FAFC"/>
<rect x="356.877" y="142.551" width="66.5137" height="8.5274" rx="4" fill="#3D3C69" fill-opacity="0.4"/>
<rect x="356.877" y="155.343" width="34.1096" height="8.5274" rx="4" fill="#3D3C69" fill-opacity="0.4"/>
<rect x="397.808" y="155.343" width="57.1335" height="8.5274" rx="4" fill="#3D3C69" fill-opacity="0.4"/>
<rect x="430.212" y="142.551" width="57.1335" height="8.5274" rx="4" fill="#3D3C69" fill-opacity="0.4"/>
<path d="M364.551 186.71L400.553 187.03L382.829 217.729L364.551 186.71Z" fill="#F7FAFC"/>
</g>
<g filter="url(#filter1_d)">
<rect x="11.9692" y="106.195" width="210.627" height="100.346" rx="46.6038" fill="#F7FAFC"/>
<rect width="77.4947" height="9.93522" rx="4.66038" transform="matrix(-1 0 0 1 191.797 142.956)" fill="#3D3C69" fill-opacity="0.4"/>
<rect width="39.7409" height="9.93522" rx="4.66038" transform="matrix(-1 0 0 1 191.797 157.858)" fill="#3D3C69" fill-opacity="0.4"/>
<rect width="66.566" height="9.93522" rx="4.66038" transform="matrix(-1 0 0 1 144.108 157.858)" fill="#3D3C69" fill-opacity="0.4"/>
<rect width="34.7733" height="9.93522" rx="4.66038" transform="matrix(-1 0 0 1 74.5612 157.858)" fill="#3D3C69" fill-opacity="0.4"/>
<rect width="66.566" height="9.93522" rx="4.66038" transform="matrix(-1 0 0 1 106.354 142.956)" fill="#3D3C69" fill-opacity="0.4"/>
<path d="M48.7295 194.405L90.6748 194.777L70.0248 230.544L48.7295 194.405Z" fill="#F7FAFC"/>
</g>
<g filter="url(#filter2_d)">
<rect x="383.407" y="233.664" width="139.256" height="79.0158" rx="36.6975" fill="#F7FAFC"/>
<rect x="405.313" y="262.611" width="61.0221" height="7.82334" rx="3.66975" fill="#3D3C69" fill-opacity="0.4"/>
<rect x="405.313" y="274.346" width="31.2934" height="7.82334" rx="3.66975" fill="#3D3C69" fill-opacity="0.4"/>
<path d="M469.465 266.28C469.465 264.254 471.108 262.611 473.134 262.611H497.088C499.115 262.611 500.758 264.254 500.758 266.28V266.764C500.758 268.791 499.115 270.434 497.088 270.434H473.134C471.108 270.434 469.465 268.791 469.465 266.764V266.28Z" fill="#3D3C69" fill-opacity="0.4"/>
<rect x="442.865" y="274.346" width="52.4164" height="7.82334" rx="3.66975" fill="#3D3C69" fill-opacity="0.4"/>
<path d="M412.354 303.124L445.383 303.417L429.123 331.581L412.354 303.124Z" fill="#F7FAFC"/>
</g>
<g filter="url(#filter3_d)">
<rect x="59.3665" y="262.657" width="136.438" height="77.4173" rx="35.9551" fill="#F7FAFC"/>
<rect width="59.7876" height="7.66507" rx="3.59551" transform="matrix(-1 0 0 1 174.343 291.018)" fill="#3D3C69" fill-opacity="0.4"/>
<rect width="30.6603" height="7.66507" rx="3.59551" transform="matrix(-1 0 0 1 174.343 302.516)" fill="#3D3C69" fill-opacity="0.4"/>
<path d="M111.489 294.614C111.489 292.628 109.879 291.018 107.894 291.018H84.4242C82.4385 291.018 80.8287 292.628 80.8287 294.614V295.088C80.8287 297.074 82.4385 298.683 84.4242 298.683H107.894C109.879 298.683 111.489 297.074 111.489 295.088V294.614Z" fill="#3D3C69" fill-opacity="0.4"/>
<rect width="51.356" height="7.66507" rx="3.59551" transform="matrix(-1 0 0 1 137.55 302.516)" fill="#3D3C69" fill-opacity="0.4"/>
<path d="M87.7273 330.712L120.088 330.999L104.157 358.593L87.7273 330.712Z" fill="#F7FAFC"/>
</g>
<g filter="url(#filter4_d)">
<rect x="267.435" y="297.62" width="107.966" height="51.4368" rx="23.8889" fill="#F7FAFC"/>
<rect x="281.695" y="316.463" width="39.7235" height="5.09276" rx="2.38889" fill="#3D3C69" fill-opacity="0.4"/>
<rect x="281.695" y="324.102" width="20.371" height="5.09276" rx="2.38889" fill="#3D3C69" fill-opacity="0.4"/>
<rect x="306.14" y="324.102" width="34.1215" height="5.09276" rx="2.38889" fill="#3D3C69" fill-opacity="0.4"/>
<rect x="325.492" y="316.463" width="34.1215" height="5.09276" rx="2.38889" fill="#3D3C69" fill-opacity="0.4"/>
<path d="M338.734 342.836L360.234 343.027L349.649 361.361L338.734 342.836Z" fill="#F7FAFC"/>
</g>
<g filter="url(#filter5_d)">
<rect x="125.88" y="320.644" width="106.618" height="50.7944" rx="23.5906" fill="#4DCCBD"/>
<rect x="139.962" y="339.252" width="39.2274" height="5.02915" rx="2.35906" fill="white"/>
<rect x="139.962" y="346.795" width="20.1166" height="5.02915" rx="2.35906" fill="white"/>
<rect x="164.102" y="346.795" width="33.6953" height="5.02915" rx="2.35906" fill="white"/>
<rect x="183.213" y="339.252" width="33.6953" height="5.02915" rx="2.35906" fill="white"/>
<path d="M197.294 365.295L218.527 365.483L208.074 383.588L197.294 365.295Z" fill="#4DCCBD"/>
</g>
<g filter="url(#filter6_d)">
<rect x="6" y="61" width="98.9178" height="51.1644" rx="23.5906" fill="#4DCCBD"/>
<rect x="25.613" y="79.7603" width="27.2877" height="5.11644" rx="2.35906" fill="white"/>
<rect x="25.613" y="87.4349" width="20.1166" height="5.02915" rx="2.35906" fill="white"/>
<rect x="48.637" y="87.4349" width="33.6953" height="5.02915" rx="2.35906" fill="white"/>
<rect x="55.6577" y="79.6079" width="33.6953" height="5.02915" rx="2.35906" fill="white"/>
<path d="M69.7393 105.651L90.9718 105.84L80.5189 123.945L69.7393 105.651Z" fill="#4DCCBD"/>
</g>
<g filter="url(#filter7_d)">
<rect x="452.479" y="163.74" width="92.9486" height="51.1644" rx="23.5906" fill="#4DCCBD"/>
<rect x="466.123" y="182.5" width="27.2877" height="5.11644" rx="2.35906" fill="white"/>
<rect x="466.123" y="190.175" width="20.1166" height="5.02915" rx="2.35906" fill="white"/>
<rect x="489.147" y="190.175" width="33.6953" height="5.02915" rx="2.35906" fill="white"/>
<rect x="495.969" y="182.5" width="12.7911" height="5.11644" rx="2.35906" fill="white"/>
<rect x="511.319" y="182.5" width="18.7603" height="5.11644" rx="2.35906" fill="white"/>
<path d="M510.25 208.391L531.482 208.579L521.029 226.684L510.25 208.391Z" fill="#4DCCBD"/>
</g>
<g clip-path="url(#clip0)" filter="url(#filter8_d)">
<circle cx="195" cy="112" r="17" fill="white"/>
<path d="M195.055 95C185.641 95 178 102.641 178 112.055C178 121.469 185.641 129.11 195.055 129.11C204.469 129.11 212.11 121.469 212.11 112.055C212.11 102.641 204.469 95 195.055 95ZM195.055 100.116C197.886 100.116 200.171 102.402 200.171 105.233C200.171 108.064 197.886 110.349 195.055 110.349C192.224 110.349 189.938 108.064 189.938 105.233C189.938 102.402 192.224 100.116 195.055 100.116ZM195.055 124.334C190.791 124.334 187.022 122.151 184.822 118.843C184.873 115.449 191.644 113.59 195.055 113.59C198.449 113.59 205.236 115.449 205.288 118.843C203.088 122.151 199.318 124.334 195.055 124.334Z" fill="#3D3C69"/>
</g>
<g clip-path="url(#clip1)" filter="url(#filter9_d)">
<circle cx="497.01" cy="114.154" r="17" fill="white"/>
<path d="M497.065 97.1542C487.651 97.1542 480.01 104.795 480.01 114.209C480.01 123.623 487.651 131.264 497.065 131.264C506.479 131.264 514.12 123.623 514.12 114.209C514.12 104.795 506.479 97.1542 497.065 97.1542ZM497.065 102.271C499.896 102.271 502.181 104.556 502.181 107.387C502.181 110.218 499.896 112.503 497.065 112.503C494.234 112.503 491.949 110.218 491.949 107.387C491.949 104.556 494.234 102.271 497.065 102.271ZM497.065 126.488C492.801 126.488 489.032 124.305 486.832 120.997C486.883 117.603 493.654 115.744 497.065 115.744C500.459 115.744 507.247 117.603 507.298 120.997C505.098 124.305 501.329 126.488 497.065 126.488Z" fill="#3D3C69"/>
</g>
<g clip-path="url(#clip2)" filter="url(#filter10_dd)">
<circle cx="183.877" cy="271.986" r="12.8467" fill="white"/>
<path d="M183.919 259.139C176.804 259.139 171.031 264.913 171.031 272.027C171.031 279.142 176.804 284.916 183.919 284.916C191.033 284.916 196.807 279.142 196.807 272.027C196.807 264.913 191.033 259.139 183.919 259.139ZM183.919 263.006C186.058 263.006 187.785 264.733 187.785 266.872C187.785 269.012 186.058 270.739 183.919 270.739C181.779 270.739 180.052 269.012 180.052 266.872C180.052 264.733 181.779 263.006 183.919 263.006ZM183.919 281.307C180.697 281.307 177.848 279.657 176.186 277.157C176.224 274.592 181.341 273.187 183.919 273.187C186.483 273.187 191.613 274.592 191.652 277.157C189.989 279.657 187.141 281.307 183.919 281.307Z" fill="#3D3C69"/>
</g>
<g clip-path="url(#clip3)" filter="url(#filter11_dd)">
<circle cx="500.877" cy="243.986" r="12.8467" fill="white"/>
<path d="M500.919 231.139C493.804 231.139 488.031 236.913 488.031 244.027C488.031 251.142 493.804 256.916 500.919 256.916C508.033 256.916 513.807 251.142 513.807 244.027C513.807 236.913 508.033 231.139 500.919 231.139ZM500.919 235.006C503.058 235.006 504.785 236.733 504.785 238.872C504.785 241.012 503.058 242.739 500.919 242.739C498.779 242.739 497.052 241.012 497.052 238.872C497.052 236.733 498.779 235.006 500.919 235.006ZM500.919 253.307C497.697 253.307 494.848 251.657 493.186 249.157C493.224 246.592 498.341 245.187 500.919 245.187C503.483 245.187 508.613 246.592 508.652 249.157C506.989 251.657 504.141 253.307 500.919 253.307Z" fill="#3D3C69"/>
</g>
<g filter="url(#filter12_d)">
<path fill-rule="evenodd" clip-rule="evenodd" d="M228.767 147.801V179.353H221.945V147.801H228.767Z" fill="white"/>
<ellipse cx="225.356" cy="142.685" rx="8.5274" ry="8.5274" fill="white"/>
<rect x="214.007" y="159.476" width="24.4041" height="44.0171" rx="12.2021" fill="white" stroke="white" stroke-width="8"/>
<path fill-rule="evenodd" clip-rule="evenodd" d="M331.685 147.801V179.353H324.863V147.801H331.685Z" fill="white"/>
<ellipse cx="328.274" cy="142.685" rx="8.5274" ry="8.5274" fill="white"/>
<rect x="316.925" y="159.476" width="24.4041" height="44.0171" rx="12.2021" fill="white" stroke="white" stroke-width="8"/>
<path d="M206.89 226.041C206.89 194.93 232.111 169.709 263.223 169.709H292.113C323.224 169.709 348.445 194.93 348.445 226.041C348.445 246.264 332.052 262.657 311.829 262.657H243.507C223.284 262.657 206.89 246.264 206.89 226.041Z" fill="#3D3C69" stroke="white" stroke-width="11"/>
<path d="M267.435 231.106C267.435 233.82 268.513 236.423 270.432 238.342C272.351 240.261 274.954 241.339 277.668 241.339C280.382 241.339 282.984 240.261 284.903 238.342C286.823 236.423 287.901 233.82 287.901 231.106L282.711 231.106C282.711 232.444 282.18 233.727 281.234 234.672C280.288 235.618 279.005 236.15 277.668 236.15C276.33 236.15 275.047 235.618 274.101 234.672C273.156 233.727 272.624 232.444 272.624 231.106L267.435 231.106Z" fill="#4DCCBD"/>
<circle cx="316.041" cy="219.168" r="8.5274" fill="#4DCCBD"/>
<circle cx="240.147" cy="219.168" r="8.5274" fill="#4DCCBD"/>
</g>
<defs>
<filter id="filter0_d" x="329" y="110" width="188.781" height="114.729" filterUnits="userSpaceOnUse" color-interpolation-filters="sRGB">
<feFlood flood-opacity="0" result="BackgroundImageFix"/>
<feColorMatrix in="SourceAlpha" type="matrix" values="0 0 0 0 0 0 0 0 0 0 0 0 0 0 0 0 0 0 127 0"/>
<feOffset dy="3"/>
<feGaussianBlur stdDeviation="2"/>
<feColorMatrix type="matrix" values="0 0 0 0 0.239216 0 0 0 0 0.235294 0 0 0 0 0.411765 0 0 0 0.1 0"/>
<feBlend mode="normal" in2="BackgroundImageFix" result="effect1_dropShadow"/>
<feBlend mode="normal" in="SourceGraphic" in2="effect1_dropShadow" result="shape"/>
</filter>
<filter id="filter1_d" x="7.96924" y="105.195" width="218.627" height="132.349" filterUnits="userSpaceOnUse" color-interpolation-filters="sRGB">
<feFlood flood-opacity="0" result="BackgroundImageFix"/>
<feColorMatrix in="SourceAlpha" type="matrix" values="0 0 0 0 0 0 0 0 0 0 0 0 0 0 0 0 0 0 127 0"/>
<feOffset dy="3"/>
<feGaussianBlur stdDeviation="2"/>
<feColorMatrix type="matrix" values="0 0 0 0 0.239216 0 0 0 0 0.235294 0 0 0 0 0.411765 0 0 0 0.1 0"/>
<feBlend mode="normal" in2="BackgroundImageFix" result="effect1_dropShadow"/>
<feBlend mode="normal" in="SourceGraphic" in2="effect1_dropShadow" result="shape"/>
</filter>
<filter id="filter2_d" x="379.407" y="232.664" width="147.256" height="105.917" filterUnits="userSpaceOnUse" color-interpolation-filters="sRGB">
<feFlood flood-opacity="0" result="BackgroundImageFix"/>
<feColorMatrix in="SourceAlpha" type="matrix" values="0 0 0 0 0 0 0 0 0 0 0 0 0 0 0 0 0 0 127 0"/>
<feOffset dy="3"/>
<feGaussianBlur stdDeviation="2"/>
<feColorMatrix type="matrix" values="0 0 0 0 0.239216 0 0 0 0 0.235294 0 0 0 0 0.411765 0 0 0 0.1 0"/>
<feBlend mode="normal" in2="BackgroundImageFix" result="effect1_dropShadow"/>
<feBlend mode="normal" in="SourceGraphic" in2="effect1_dropShadow" result="shape"/>
</filter>
<filter id="filter3_d" x="55.3665" y="261.657" width="144.438" height="103.936" filterUnits="userSpaceOnUse" color-interpolation-filters="sRGB">
<feFlood flood-opacity="0" result="BackgroundImageFix"/>
<feColorMatrix in="SourceAlpha" type="matrix" values="0 0 0 0 0 0 0 0 0 0 0 0 0 0 0 0 0 0 127 0"/>
<feOffset dy="3"/>
<feGaussianBlur stdDeviation="2"/>
<feColorMatrix type="matrix" values="0 0 0 0 0.239216 0 0 0 0 0.235294 0 0 0 0 0.411765 0 0 0 0.1 0"/>
<feBlend mode="normal" in2="BackgroundImageFix" result="effect1_dropShadow"/>
<feBlend mode="normal" in="SourceGraphic" in2="effect1_dropShadow" result="shape"/>
</filter>
<filter id="filter4_d" x="257.435" y="290.62" width="127.966" height="83.7408" filterUnits="userSpaceOnUse" color-interpolation-filters="sRGB">
<feFlood flood-opacity="0" result="BackgroundImageFix"/>
<feColorMatrix in="SourceAlpha" type="matrix" values="0 0 0 0 0 0 0 0 0 0 0 0 0 0 0 0 0 0 127 0"/>
<feOffset dy="3"/>
<feGaussianBlur stdDeviation="5"/>
<feColorMatrix type="matrix" values="0 0 0 0 0.239216 0 0 0 0 0.235294 0 0 0 0 0.411765 0 0 0 0.15 0"/>
<feBlend mode="normal" in2="BackgroundImageFix" result="effect1_dropShadow"/>
<feBlend mode="normal" in="SourceGraphic" in2="effect1_dropShadow" result="shape"/>
</filter>
<filter id="filter5_d" x="119.88" y="318.644" width="118.618" height="74.9447" filterUnits="userSpaceOnUse" color-interpolation-filters="sRGB">
<feFlood flood-opacity="0" result="BackgroundImageFix"/>
<feColorMatrix in="SourceAlpha" type="matrix" values="0 0 0 0 0 0 0 0 0 0 0 0 0 0 0 0 0 0 127 0"/>
<feOffset dy="4"/>
<feGaussianBlur stdDeviation="3"/>
<feColorMatrix type="matrix" values="0 0 0 0 0.239216 0 0 0 0 0.235294 0 0 0 0 0.411765 0 0 0 0.24 0"/>
<feBlend mode="normal" in2="BackgroundImageFix" result="effect1_dropShadow"/>
<feBlend mode="normal" in="SourceGraphic" in2="effect1_dropShadow" result="shape"/>
</filter>
<filter id="filter6_d" x="0" y="59" width="110.918" height="74.9447" filterUnits="userSpaceOnUse" color-interpolation-filters="sRGB">
<feFlood flood-opacity="0" result="BackgroundImageFix"/>
<feColorMatrix in="SourceAlpha" type="matrix" values="0 0 0 0 0 0 0 0 0 0 0 0 0 0 0 0 0 0 127 0"/>
<feOffset dy="4"/>
<feGaussianBlur stdDeviation="3"/>
<feColorMatrix type="matrix" values="0 0 0 0 0.239216 0 0 0 0 0.235294 0 0 0 0 0.411765 0 0 0 0.24 0"/>
<feBlend mode="normal" in2="BackgroundImageFix" result="effect1_dropShadow"/>
<feBlend mode="normal" in="SourceGraphic" in2="effect1_dropShadow" result="shape"/>
</filter>
<filter id="filter7_d" x="446.479" y="161.74" width="104.949" height="74.9447" filterUnits="userSpaceOnUse" color-interpolation-filters="sRGB">
<feFlood flood-opacity="0" result="BackgroundImageFix"/>
<feColorMatrix in="SourceAlpha" type="matrix" values="0 0 0 0 0 0 0 0 0 0 0 0 0 0 0 0 0 0 127 0"/>
<feOffset dy="4"/>
<feGaussianBlur stdDeviation="3"/>
<feColorMatrix type="matrix" values="0 0 0 0 0.239216 0 0 0 0 0.235294 0 0 0 0 0.411765 0 0 0 0.24 0"/>
<feBlend mode="normal" in2="BackgroundImageFix" result="effect1_dropShadow"/>
<feBlend mode="normal" in="SourceGraphic" in2="effect1_dropShadow" result="shape"/>
</filter>
<filter id="filter8_d" x="165.99" y="85.8458" width="56.9315" height="56.9315" filterUnits="userSpaceOnUse" color-interpolation-filters="sRGB">
<feFlood flood-opacity="0" result="BackgroundImageFix"/>
<feColorMatrix in="SourceAlpha" type="matrix" values="0 0 0 0 0 0 0 0 0 0 0 0 0 0 0 0 0 0 127 0"/>
<feOffset dy="3"/>
<feGaussianBlur stdDeviation="4"/>
<feColorMatrix type="matrix" values="0 0 0 0 0.239216 0 0 0 0 0.235294 0 0 0 0 0.411765 0 0 0 0.23 0"/>
<feBlend mode="normal" in2="BackgroundImageFix" result="effect1_dropShadow"/>
<feBlend mode="normal" in="SourceGraphic" in2="effect1_dropShadow" result="shape"/>
</filter>
<filter id="filter9_d" x="468" y="88" width="56.9315" height="56.9315" filterUnits="userSpaceOnUse" color-interpolation-filters="sRGB">
<feFlood flood-opacity="0" result="BackgroundImageFix"/>
<feColorMatrix in="SourceAlpha" type="matrix" values="0 0 0 0 0 0 0 0 0 0 0 0 0 0 0 0 0 0 127 0"/>
<feOffset dy="3"/>
<feGaussianBlur stdDeviation="4"/>
<feColorMatrix type="matrix" values="0 0 0 0 0.239216 0 0 0 0 0.235294 0 0 0 0 0.411765 0 0 0 0.23 0"/>
<feBlend mode="normal" in2="BackgroundImageFix" result="effect1_dropShadow"/>
<feBlend mode="normal" in="SourceGraphic" in2="effect1_dropShadow" result="shape"/>
</filter>
<filter id="filter10_dd" x="164" y="255" width="38.9315" height="39.9315" filterUnits="userSpaceOnUse" color-interpolation-filters="sRGB">
<feFlood flood-opacity="0" result="BackgroundImageFix"/>
<feColorMatrix in="SourceAlpha" type="matrix" values="0 0 0 0 0 0 0 0 0 0 0 0 0 0 0 0 0 0 127 0"/>
<feOffset dy="4"/>
<feGaussianBlur stdDeviation="2"/>
<feColorMatrix type="matrix" values="0 0 0 0 0 0 0 0 0 0 0 0 0 0 0 0 0 0 0.25 0"/>
<feBlend mode="normal" in2="BackgroundImageFix" result="effect1_dropShadow"/>
<feColorMatrix in="SourceAlpha" type="matrix" values="0 0 0 0 0 0 0 0 0 0 0 0 0 0 0 0 0 0 127 0"/>
<feOffset dy="3"/>
<feGaussianBlur stdDeviation="2"/>
<feColorMatrix type="matrix" values="0 0 0 0 0.239216 0 0 0 0 0.235294 0 0 0 0 0.411765 0 0 0 0.1 0"/>
<feBlend mode="normal" in2="effect1_dropShadow" result="effect2_dropShadow"/>
<feBlend mode="normal" in="SourceGraphic" in2="effect2_dropShadow" result="shape"/>
</filter>
<filter id="filter11_dd" x="481" y="227" width="38.9315" height="39.9315" filterUnits="userSpaceOnUse" color-interpolation-filters="sRGB">
<feFlood flood-opacity="0" result="BackgroundImageFix"/>
<feColorMatrix in="SourceAlpha" type="matrix" values="0 0 0 0 0 0 0 0 0 0 0 0 0 0 0 0 0 0 127 0"/>
<feOffset dy="4"/>
<feGaussianBlur stdDeviation="2"/>
<feColorMatrix type="matrix" values="0 0 0 0 0 0 0 0 0 0 0 0 0 0 0 0 0 0 0.25 0"/>
<feBlend mode="normal" in2="BackgroundImageFix" result="effect1_dropShadow"/>
<feColorMatrix in="SourceAlpha" type="matrix" values="0 0 0 0 0 0 0 0 0 0 0 0 0 0 0 0 0 0 127 0"/>
<feOffset dy="3"/>
<feGaussianBlur stdDeviation="2"/>
<feColorMatrix type="matrix" values="0 0 0 0 0.239216 0 0 0 0 0.235294 0 0 0 0 0.411765 0 0 0 0.1 0"/>
<feBlend mode="normal" in2="effect1_dropShadow" result="effect2_dropShadow"/>
<feBlend mode="normal" in="SourceGraphic" in2="effect2_dropShadow" result="shape"/>
</filter>
<filter id="filter12_d" x="186.39" y="122.157" width="182.555" height="164" filterUnits="userSpaceOnUse" color-interpolation-filters="sRGB">
<feFlood flood-opacity="0" result="BackgroundImageFix"/>
<feColorMatrix in="SourceAlpha" type="matrix" values="0 0 0 0 0 0 0 0 0 0 0 0 0 0 0 0 0 0 127 0"/>
<feOffset dy="3"/>
<feGaussianBlur stdDeviation="7.5"/>
<feColorMatrix type="matrix" values="0 0 0 0 0.239216 0 0 0 0 0.235294 0 0 0 0 0.411765 0 0 0 0.25 0"/>
<feBlend mode="normal" in2="BackgroundImageFix" result="effect1_dropShadow"/>
<feBlend mode="normal" in="SourceGraphic" in2="effect1_dropShadow" result="shape"/>
</filter>
<clipPath id="clip0">
<rect width="40.9315" height="40.9315" fill="white" transform="translate(173.99 90.8458)"/>
</clipPath>
<clipPath id="clip1">
<rect width="40.9315" height="40.9315" fill="white" transform="translate(476 93)"/>
</clipPath>
<clipPath id="clip2">
<rect width="30.9315" height="30.9315" fill="white" transform="translate(168 256)"/>
</clipPath>
<clipPath id="clip3">
<rect width="30.9315" height="30.9315" fill="white" transform="translate(485 228)"/>
</clipPath>
</defs>
</svg>
