<svg width="32" height="32" viewBox="0 0 32 32" fill="none" xmlns="http://www.w3.org/2000/svg">
<circle opacity="0.5" cx="16" cy="16" r="16" fill="#F1647D"/>
<path fill-rule="evenodd" clip-rule="evenodd" d="M19.5 15C18.6716 15 18 14.3284 18 13.5C18 12.6716 18.6716 12 19.5 12C20.3284 12 21 12.6716 21 13.5C21 14.3284 20.3284 15 19.5 15ZM12.5 15C11.6716 15 11 14.3284 11 13.5C11 12.6716 11.6716 12 12.5 12C13.3284 12 14 12.6716 14 13.5C14 14.3284 13.3284 15 12.5 15ZM16 20C17.48 20 18.75 19.19 19.45 18H21.12C20.32 20.05 18.33 21.5 16 21.5C13.67 21.5 11.68 20.05 10.88 18H12.55C13.25 19.19 14.52 20 16 20ZM15.99 6C21.52 6 26 10.48 26 16C26 21.52 21.52 26 15.99 26C10.47 26 6 21.52 6 16C6 10.48 10.47 6 15.99 6ZM16 24C20.42 24 24 20.42 24 16C24 11.58 20.42 8 16 8C11.58 8 8 11.58 8 16C8 20.42 11.58 24 16 24Z" fill="#F7FAFC"/>
</svg>
