<svg width="821" height="941" viewBox="0 0 821 941" fill="none" xmlns="http://www.w3.org/2000/svg">
<path d="M241.027 542.474C252.857 539.605 265.35 542.279 274.969 549.74L372.066 625.048C381.685 632.508 387.383 643.943 387.548 656.115L389.209 778.982C389.373 791.154 383.986 802.738 374.573 810.456L279.546 888.361C270.133 896.079 257.717 899.09 245.813 896.542L125.657 870.821C113.754 868.272 103.658 860.443 98.2289 849.548L43.4222 739.568C37.9928 728.673 37.8201 715.899 42.953 704.861L94.7668 593.44C99.8998 582.403 109.78 574.303 121.61 571.434L241.027 542.474Z" fill="#E8DDEE"/>
<path d="M401.92 114.182C410.32 102.621 424.249 96.4191 438.462 97.9129L626.033 117.628C640.246 119.121 652.582 128.084 658.394 141.139L735.107 313.438C740.919 326.493 739.325 341.658 730.926 353.219L620.066 505.804C611.666 517.365 597.737 523.567 583.524 522.073L395.953 502.359C381.74 500.865 369.404 491.902 363.592 478.847L286.879 306.548C281.067 293.493 282.661 278.328 291.061 266.767L401.92 114.182Z" fill="#4DCCBD" fill-opacity="0.5"/>
</svg>
