<svg width="179" height="34" viewBox="0 0 179 34" fill="none" xmlns="http://www.w3.org/2000/svg">
<path d="M9.808 8.54L10.744 12.284C9.952 12.284 9.028 12.512 7.972 12.968C6.94 13.424 5.92 14.096 4.912 14.984V26H0.232V8.54H2.68L4.228 11.096C4.948 10.472 5.824 9.896 6.856 9.368C7.888 8.816 8.872 8.54 9.808 8.54ZM22.1703 26.432C19.1463 26.432 16.7583 25.604 15.0063 23.948C13.2783 22.292 12.4143 20.072 12.4143 17.288C12.4143 14.504 13.1943 12.272 14.7543 10.592C16.3383 8.912 18.4863 8.072 21.1983 8.072C23.9343 8.072 25.9383 8.984 27.2103 10.808C28.5063 12.608 29.1543 14.744 29.1543 17.216V18.656H17.3823C17.5983 19.808 18.1263 20.732 18.9663 21.428C19.8063 22.1 20.9103 22.436 22.2783 22.436C23.0703 22.436 23.7783 22.34 24.4023 22.148C25.0503 21.932 25.7943 21.632 26.6343 21.248L28.0023 24.632C27.1863 25.256 26.1903 25.712 25.0143 26C23.8623 26.288 22.9143 26.432 22.1703 26.432ZM24.7263 15.524C24.4863 14.348 24.0543 13.484 23.4303 12.932C22.8063 12.356 22.0263 12.068 21.0903 12.068C20.1303 12.068 19.3263 12.368 18.6783 12.968C18.0303 13.544 17.6103 14.396 17.4183 15.524H24.7263ZM40.7435 22.436C42.3515 22.436 43.4795 21.86 44.1275 20.708C44.7755 19.532 45.0995 18.344 45.0995 17.144C45.0995 15.776 44.8115 14.552 44.2355 13.472C43.6595 12.392 42.4955 11.852 40.7435 11.852C40.2395 11.852 39.7115 11.948 39.1595 12.14C38.6315 12.308 38.1275 12.548 37.6475 12.86V21.428C38.1275 21.716 38.6315 21.956 39.1595 22.148C39.7115 22.34 40.2395 22.436 40.7435 22.436ZM33.0035 8.54H35.3795L36.3875 9.836C37.1795 9.236 38.1035 8.756 39.1595 8.396C40.2155 8.036 41.1515 7.856 41.9675 7.856C44.5355 7.856 46.5035 8.744 47.8715 10.52C49.2395 12.296 49.9235 14.504 49.9235 17.144C49.9235 19.784 49.2155 21.992 47.7995 23.768C46.4075 25.544 44.4635 26.432 41.9675 26.432C41.3435 26.432 40.6355 26.324 39.8435 26.108C39.0755 25.892 38.3435 25.592 37.6475 25.208V33.524L33.0035 33.884V8.54ZM58.5655 0.583999V26H53.9215V0.979998L58.5655 0.583999ZM66.616 26.828L67.444 24.776L61.216 9.188L66.04 8.54L70.072 19.124L73.888 8.54H78.82L71.944 26L71.008 28.304C70.456 29.72 69.484 30.932 68.092 31.94C66.7 32.948 65.236 33.632 63.7 33.992L62.044 30.14C62.884 29.78 63.772 29.336 64.708 28.808C65.668 28.304 66.304 27.644 66.616 26.828ZM96.244 10.592C96.988 9.752 97.972 9.092 99.196 8.612C100.444 8.108 101.56 7.856 102.544 7.856C104.92 7.856 106.6 8.552 107.584 9.944C108.592 11.336 109.096 13.04 109.096 15.056V26H104.38V15.272C104.38 14.168 104.116 13.328 103.588 12.752C103.06 12.152 102.292 11.852 101.284 11.852C100.612 11.852 99.904 12.032 99.16 12.392C98.416 12.752 97.744 13.16 97.144 13.616C97.168 13.856 97.192 14.096 97.216 14.336C97.24 14.576 97.252 14.816 97.252 15.056V26H92.536V15.272C92.536 14.168 92.272 13.328 91.744 12.752C91.216 12.152 90.46 11.852 89.476 11.852C88.876 11.852 88.264 11.984 87.64 12.248C87.04 12.488 86.464 12.8 85.912 13.184V26H81.232V8.54H83.68L84.832 10.124C85.624 9.404 86.572 8.852 87.676 8.468C88.804 8.06 89.812 7.856 90.7 7.856C92.068 7.856 93.208 8.108 94.12 8.612C95.032 9.092 95.74 9.752 96.244 10.592ZM122.401 26.432C119.377 26.432 116.989 25.604 115.237 23.948C113.509 22.292 112.645 20.072 112.645 17.288C112.645 14.504 113.425 12.272 114.985 10.592C116.569 8.912 118.717 8.072 121.429 8.072C124.165 8.072 126.169 8.984 127.441 10.808C128.737 12.608 129.385 14.744 129.385 17.216V18.656H117.613C117.829 19.808 118.357 20.732 119.197 21.428C120.037 22.1 121.141 22.436 122.509 22.436C123.301 22.436 124.009 22.34 124.633 22.148C125.281 21.932 126.025 21.632 126.865 21.248L128.233 24.632C127.417 25.256 126.421 25.712 125.245 26C124.093 26.288 123.145 26.432 122.401 26.432ZM124.957 15.524C124.717 14.348 124.285 13.484 123.661 12.932C123.037 12.356 122.257 12.068 121.321 12.068C120.361 12.068 119.557 12.368 118.909 12.968C118.261 13.544 117.841 14.396 117.649 15.524H124.957ZM133.774 20.744C134.518 20.744 135.13 20.996 135.61 21.5C136.114 22.004 136.366 22.628 136.366 23.372C136.366 24.116 136.114 24.74 135.61 25.244C135.13 25.748 134.518 26 133.774 26C133.03 26 132.394 25.748 131.866 25.244C131.362 24.74 131.11 24.116 131.11 23.372C131.11 22.628 131.362 22.004 131.866 21.5C132.394 20.996 133.03 20.744 133.774 20.744Z" fill="#4DCCBD"/>
<path d="M142.486 20.78C142.486 21.284 142.69 21.74 143.098 22.148C143.506 22.532 144.046 22.724 144.718 22.724C145.366 22.724 146.014 22.58 146.662 22.292C147.334 22.004 147.97 21.572 148.57 20.996V18.332H145.042C144.226 18.332 143.59 18.584 143.134 19.088C142.702 19.592 142.486 20.156 142.486 20.78ZM144.79 26.432C142.654 26.432 141.07 25.916 140.038 24.884C139.006 23.828 138.49 22.46 138.49 20.78C138.49 18.98 139.102 17.6 140.326 16.64C141.55 15.68 143.146 15.2 145.114 15.2H148.534C148.51 14.312 148.246 13.628 147.742 13.148C147.262 12.644 146.59 12.392 145.726 12.392C144.91 12.392 144.022 12.512 143.062 12.752C142.102 12.968 141.298 13.232 140.65 13.544L139.39 9.656C140.062 9.2 141.082 8.828 142.45 8.54C143.842 8.228 144.91 8.072 145.654 8.072C147.742 8.072 149.53 8.684 151.018 9.908C152.506 11.108 153.25 12.644 153.25 14.516V26H150.838L149.686 24.524C149.038 25.028 148.27 25.472 147.382 25.856C146.518 26.24 145.654 26.432 144.79 26.432ZM159.896 0.799998C160.64 0.799998 161.264 1.052 161.768 1.556C162.296 2.06 162.56 2.684 162.56 3.428C162.56 4.172 162.296 4.796 161.768 5.3C161.264 5.804 160.64 6.056 159.896 6.056C159.176 6.056 158.564 5.804 158.06 5.3C157.556 4.796 157.304 4.172 157.304 3.428C157.304 2.684 157.556 2.06 158.06 1.556C158.564 1.052 159.176 0.799998 159.896 0.799998ZM162.236 8.54V26H157.556V8.54H162.236Z" fill="#201F43"/>
<path d="M178.863 26H165.507L165.111 22.364H178.503L178.863 26Z" fill="#201F43"/>
</svg>
